<?xml version="1.0" encoding="utf-8"?>
<!-- Generator: Adobe Illustrator 17.1.0, SVG Export Plug-In . SVG Version: 6.00 Build 0)  -->
<!DOCTYPE svg PUBLIC "-//W3C//DTD SVG 1.1//EN" "http://www.w3.org/Graphics/SVG/1.1/DTD/svg11.dtd">
<svg version="1.1" id="Layer_1" xmlns="http://www.w3.org/2000/svg" xmlns:xlink="http://www.w3.org/1999/xlink" x="0px" y="0px"
	 viewBox="0 0 1100 251.8" enable-background="new 0 0 1100 251.8" xml:space="preserve">
<g>
	<g id="ik-logo-hor">
		<g id="ik-logo-hor-2" transform="translate(112 112)">
			<path id="Path_1" fill="#BEEB9F" d="M-112-112V89.4l87.2,50.4V-61.6L-112-112z"/>
			<path id="Path_2" fill="#BEEB9F" d="M124.8-112L81.2-86.8L-6-36.5V64.2l87.3-50.3l43.6-25.2V-112z"/>
			<path id="Path_3" fill="#00A388" d="M124.8,39L81.2,13.9L-6-36.5V64.2l87.3,50.4l43.6,25.2V39z"/>
			<path id="Path_4" fill="#79BD8F" d="M-6-36.5l87.3,50.3L-6,64.2V-36.5z"/>
			<path id="Path_5" fill="#79BD8F" d="M-112-112l87.2,50.4L-112-11.3V-112z"/>
		</g>
		<path id="Path_39" fill="#111111" d="M325.5,50.6h13v36.7l26.9-36.7h12.2V107h-12.9V70.3L337.8,107h-12.3V50.6z M390.7,63.7h12.5
			v16.9H422V63.7h12.6V107H422V90.8h-18.9V107h-12.5V63.7z M499.7,101.1c-4.5,3.9-10.9,6.1-19.2,6.7v14.8H469v-14.8
			c-8.3-0.6-14.7-2.8-19.2-6.6c-4.5-3.8-6.7-9.2-6.7-16c0-6.7,2.2-11.9,6.6-15.6c4.4-3.7,10.9-5.9,19.3-6.4V47.2h11.5v15.9
			c8.3,0.6,14.7,2.8,19.2,6.5c4.5,3.8,6.7,8.9,6.7,15.5C506.5,91.9,504.2,97.2,499.7,101.1z M458.5,94.1c2.2,2.1,5.7,3.4,10.5,3.9
			V72.8c-4.8,0.5-8.3,1.7-10.5,3.7c-2.3,2.2-3.5,5.4-3.3,8.6C455.2,89,456.3,92,458.5,94.1z M491,94.1c2.2-2.1,3.3-5.1,3.3-8.9
			c0.2-3.2-1-6.3-3.3-8.6c-2.2-2-5.7-3.3-10.5-3.7v25.2C485.3,97.5,488.8,96.2,491,94.1z M523,104.8c-3.5-1.8-6.5-4.5-8.5-7.9
			c-2.1-3.5-3.1-7.5-3.1-11.5c-0.1-4,1-8,3.1-11.5c2-3.4,5-6.1,8.5-7.9c3.8-1.9,8-2.9,12.3-2.9c4.3-0.1,8.5,0.9,12.2,2.9
			c3.5,1.8,6.4,4.6,8.5,7.9c2.1,3.5,3.1,7.5,3.1,11.5c0.1,4-1,8-3.1,11.5c-2,3.4-5,6.1-8.5,7.9c-3.8,2-8,2.9-12.2,2.9
			C531,107.7,526.8,106.7,523,104.8z M543.2,94.1c2.1-2.4,3.3-5.5,3.1-8.7c0.2-3.2-1-6.4-3.1-8.7c-2.1-2.2-4.9-3.4-7.9-3.3
			c-3-0.1-5.9,1.1-8,3.3c-2.2,2.4-3.3,5.5-3.1,8.7c-0.2,3.2,1,6.4,3.1,8.7c2.1,2.2,5,3.4,8,3.3C538.3,97.4,541.2,96.2,543.2,94.1z
			 M604.2,65.8c3.3,1.8,6,4.5,7.8,7.8c1.9,3.6,2.9,7.6,2.8,11.7c0.1,4.1-0.9,8.1-2.8,11.7c-1.8,3.3-4.5,6-7.8,7.8
			c-3.4,1.9-7.2,2.8-11,2.8c-5.5,0-9.9-1.7-13.1-5.2v20.2h-12.6v-59h12v5c3.1-3.8,7.7-5.6,13.6-5.6C597.1,63,600.9,63.9,604.2,65.8z
			 M599,94.1c2.1-2.4,3.3-5.5,3.1-8.7c0.2-3.2-1-6.4-3.1-8.7c-2.1-2.2-4.9-3.4-7.9-3.3c-3-0.1-5.9,1.1-7.9,3.3
			c-2.1,2.4-3.3,5.5-3.1,8.7c-0.2,3.2,1,6.4,3.1,8.7c2.1,2.2,4.9,3.4,7.9,3.3C594,97.4,596.9,96.2,599,94.1z M665.9,107V81.1
			l-13,21.8h-5.3L635,81v26h-11.4V63.7h13.1l13.9,25.1l14.7-25.1h11.8l0.2,43.3H665.9z M721.6,67.8c3.6,3.2,5.4,8,5.4,14.5V107
			h-11.8v-5.4c-2.4,4-6.8,6-13.2,6c-3,0.1-5.9-0.5-8.7-1.7c-2.3-1-4.2-2.6-5.6-4.7c-1.3-2-2-4.4-1.9-6.8c-0.1-3.7,1.6-7.3,4.6-9.5
			c3-2.3,7.7-3.5,14.1-3.5h10c0.1-2.4-0.8-4.7-2.5-6.3c-1.7-1.5-4.2-2.2-7.5-2.2c-2.3,0-4.6,0.4-6.8,1.1c-2.1,0.6-4,1.6-5.7,2.9
			l-4.5-8.8c2.6-1.8,5.5-3.1,8.5-3.9c3.3-0.9,6.8-1.4,10.2-1.4C712.8,63,718,64.6,721.6,67.8z M710.9,97.7c1.7-1,2.9-2.6,3.6-4.4
			v-4.4h-8.6c-5.2,0-7.7,1.7-7.7,5.1c-0.1,1.5,0.7,2.9,1.9,3.8c1.5,1,3.4,1.5,5.2,1.4C707.1,99.2,709.1,98.7,710.9,97.7z
			 M786.8,96.7v19.8h-11.7V107h-37.1V63.7h12.5v33h17.5v-33h12.6v33H786.8z M794.6,63.7h12.5v25.8l21.1-25.8h11.5V107h-12.5V81.2
			l-21,25.8h-11.6V63.7z M859.9,104.8c-3.5-1.8-6.5-4.5-8.5-7.9c-2.1-3.5-3.1-7.5-3.1-11.5c-0.1-4,1-8,3.1-11.5c2-3.4,5-6.1,8.5-7.9
			c3.8-1.9,8-2.9,12.3-2.9c4.3-0.1,8.5,0.9,12.2,2.9c3.5,1.8,6.4,4.6,8.5,7.9c2.1,3.5,3.1,7.5,3.1,11.5c0.1,4-1,8-3.1,11.5
			c-2,3.4-5,6.1-8.5,7.9c-3.8,2-8,2.9-12.2,2.9C867.9,107.7,863.7,106.7,859.9,104.8z M880.1,94.1c2.1-2.4,3.3-5.5,3.1-8.7
			c0.2-3.2-1-6.4-3.1-8.7c-2.1-2.2-4.9-3.4-7.9-3.3c-3-0.1-5.9,1.1-8,3.3c-2.2,2.4-3.3,5.5-3.1,8.7c-0.2,3.2,1,6.4,3.1,8.7
			c2.1,2.2,5,3.4,8,3.3C875.1,97.4,878,96.2,880.1,94.1z M904.5,63.7H917v16.9h18.9V63.7h12.6V107h-12.6V90.8H917V107h-12.5
			L904.5,63.7z M960.5,63.7h12.5v16.9h18.9V63.7h12.6V107h-12.6V90.8h-18.9V107h-12.5L960.5,63.7z M1048.7,67.8
			c3.6,3.2,5.4,8,5.4,14.5V107h-11.8v-5.4c-2.4,4-6.8,6-13.2,6c-3,0.1-5.9-0.5-8.7-1.7c-2.3-1-4.2-2.6-5.6-4.7c-1.3-2-2-4.4-1.9-6.8
			c-0.1-3.7,1.6-7.3,4.6-9.5c3-2.3,7.7-3.5,14.1-3.5h10c0.1-2.4-0.8-4.7-2.5-6.3c-1.7-1.5-4.2-2.2-7.5-2.2c-2.3,0-4.6,0.4-6.8,1.1
			c-2.1,0.6-4,1.6-5.7,2.9l-4.5-8.8c2.6-1.8,5.5-3.1,8.5-3.9c3.3-0.9,6.8-1.4,10.2-1.4C1039.9,63,1045.1,64.6,1048.7,67.8
			L1048.7,67.8z M1038,97.7c1.7-1,2.9-2.6,3.5-4.4v-4.4h-8.6c-5.2,0-7.7,1.7-7.7,5.1c-0.1,1.5,0.7,2.9,1.9,3.8
			c1.5,1,3.4,1.5,5.2,1.4C1034.2,99.2,1036.2,98.7,1038,97.7z M1103.6,63.7V107h-11.2V94.6h-9.3l-8.2,12.4h-13.4l9.9-14.2
			c-2.8-1-5.1-2.8-6.9-5.1c-1.6-2.4-2.5-5.2-2.4-8.1c-0.2-4.6,1.8-9,5.5-11.8c3.7-2.8,8.7-4.2,15.2-4.2L1103.6,63.7z M1077,75.3
			c-1.4,1.1-2.2,2.9-2.1,4.7c-0.2,1.8,0.6,3.6,2,4.7c1.8,1.1,3.9,1.6,6,1.5h9.4V73.9h-9.3C1081,73.7,1078.8,74.3,1077,75.3
			L1077,75.3z M343.6,186.2h-6.5v16.4h-12.6v-43.3h12.6v16.8h6.8l11.8-16.8H369l-15.1,20.8l16.2,22.6h-14.8L343.6,186.2z
			 M417.3,159.3l-19.6,46c-2,5-4.4,8.5-7.4,10.6c-3.1,2.1-6.8,3.2-10.6,3.1c-2.3,0-4.5-0.4-6.7-1c-2-0.6-3.8-1.6-5.4-2.9l4.6-8.9
			c1,0.9,2.1,1.6,3.3,2c1.2,0.5,2.5,0.7,3.7,0.7c1.5,0.1,3-0.4,4.2-1.2c1.3-1.1,2.3-2.6,2.9-4.2l0.2-0.4l-18.8-43.7h13l12.2,29.4
			l12.2-29.4L417.3,159.3z M461.8,159.3v43.3h-12.6v-33h-13.7l-0.4,7.7c-0.1,4.8-0.6,9.5-1.6,14.2c-0.6,3.3-2.1,6.3-4.2,8.9
			c-2.1,2.2-5,3.4-8.1,3.2c-2.2-0.1-4.4-0.4-6.5-1l0.6-10.3c0.6,0.1,1.2,0.1,1.9,0.2c1.7,0.1,3.3-0.7,4.2-2.1c1-1.6,1.7-3.4,1.9-5.2
			c0.4-2.8,0.6-5.6,0.7-8.4l0.6-17.4L461.8,159.3z M510.3,177c3.1,2.6,4.7,6.6,4.5,10.6c0.2,4.3-1.7,8.5-5,11.2
			c-3.4,2.7-8.1,4-14.1,4l-21.8-0.1v-43.3h12.5v13.9h11C503,173.2,507.3,174.5,510.3,177L510.3,177z M500.1,192.3
			c1.4-1.2,2.1-3,1.9-4.8c0.2-1.7-0.6-3.5-1.9-4.6c-1.7-1.1-3.6-1.6-5.6-1.5l-8.1-0.1v12.6h8.1C496.5,194,498.5,193.5,500.1,192.3
			L500.1,192.3z M555.1,169.6h-14.7v33H528v-33h-14.7v-10.3h41.8V169.6z M605.6,159.3l-19.6,46c-2,5-4.4,8.5-7.4,10.6
			c-3.1,2.1-6.8,3.2-10.6,3.1c-2.3,0-4.5-0.4-6.7-1c-2-0.6-3.8-1.6-5.4-2.9l4.6-8.9c1,0.9,2.1,1.6,3.3,2c1.2,0.5,2.5,0.7,3.7,0.7
			c1.5,0.1,3-0.4,4.2-1.2c1.3-1.1,2.3-2.6,2.9-4.2l0.2-0.4l-18.8-43.7h13l12.2,29.4l12.2-29.4H605.6z M648.2,161.5
			c3.3,1.8,6,4.5,7.8,7.8c1.9,3.6,2.9,7.6,2.8,11.7c0.1,4.1-0.9,8.1-2.8,11.7c-1.8,3.3-4.5,6-7.8,7.8c-3.4,1.9-7.2,2.8-11,2.8
			c-5.5,0-9.9-1.7-13.1-5.2v20.2h-12.6v-59h12v5c3.1-3.8,7.7-5.6,13.6-5.6C641.1,158.6,644.9,159.6,648.2,161.5L648.2,161.5z
			 M643,189.8c2.1-2.4,3.3-5.5,3.1-8.7c0.2-3.2-1-6.4-3.1-8.7c-4.4-4.4-11.5-4.4-15.9,0c-2.1,2.4-3.3,5.5-3.1,8.7
			c-0.2,3.2,1,6.4,3.1,8.7C631.5,194.1,638.6,194.1,643,189.8z M699.2,163.5c3.6,3.2,5.4,8,5.4,14.5v24.7h-11.8v-5.4
			c-2.4,4-6.8,6-13.2,6c-3,0.1-5.9-0.5-8.7-1.7c-2.3-1-4.2-2.6-5.6-4.7c-1.3-2-2-4.4-1.9-6.8c-0.1-3.7,1.6-7.3,4.6-9.5
			c3-2.3,7.7-3.5,14.1-3.5h10c0.1-2.4-0.8-4.7-2.5-6.3c-1.7-1.5-4.2-2.2-7.5-2.2c-2.3,0-4.6,0.4-6.8,1.1c-2.1,0.6-4,1.6-5.7,2.9
			l-4.5-8.8c2.6-1.8,5.5-3.1,8.5-3.9c3.3-0.9,6.8-1.4,10.2-1.4C690.4,158.7,695.6,160.3,699.2,163.5z M688.5,193.4
			c1.7-1,2.9-2.6,3.5-4.4v-4.4h-8.6c-5.2,0-7.7,1.7-7.7,5.1c-0.1,1.5,0.7,2.9,1.9,3.8c1.5,1,3.4,1.5,5.2,1.4
			C684.7,194.9,686.7,194.4,688.5,193.4z"/>
	</g>
</g>
</svg>
